<svg width="356" height="452" viewBox="0 0 356 452" fill="none" xmlns="http://www.w3.org/2000/svg">
<g filter="url(#filter0_d_299_7)">
<path d="M16 16C16 7.16344 23.1634 0 32 0H324C332.837 0 340 7.16344 340 16V404C340 412.837 332.837 420 324 420H32C23.1634 420 16 412.837 16 404V16Z" fill="#1E1E1E"/>
<path d="M178 27C255.32 27 318 74.4578 318 133V285H38V133C38 74.4578 100.68 27 178 27Z" fill="white"/>
<path d="M16 211H340V404C340 412.837 332.837 420 324 420H32C23.1634 420 16 412.837 16 404V211Z" fill="#E8E8E8"/>
<path d="M177 229L207.311 199H146.689L177 229Z" fill="#F4B678"/>
<ellipse cx="115" cy="406.499" rx="18" ry="9.5" fill="#F4B678"/>
<ellipse cx="100.846" cy="397.02" rx="15.8983" ry="9.5" transform="rotate(72.4758 100.846 397.02)" fill="#F4B678"/>
<ellipse cx="15.8983" cy="9.5" rx="15.8983" ry="9.5" transform="matrix(-0.301109 0.95359 0.95359 0.301109 124.574 378.999)" fill="#F4B678"/>
<ellipse cx="15.8983" cy="9.5" rx="15.8983" ry="9.5" transform="matrix(0 -1 -1 0 124 402.795)" fill="#F4B678"/>
<ellipse cx="115" cy="406.499" rx="18" ry="9.5" fill="#F4B678"/>
<ellipse cx="100.846" cy="397.02" rx="15.8983" ry="9.5" transform="rotate(72.4758 100.846 397.02)" fill="#F4B678"/>
<ellipse cx="15.8983" cy="9.5" rx="15.8983" ry="9.5" transform="matrix(-0.301109 0.95359 0.95359 0.301109 124.574 378.999)" fill="#F4B678"/>
<ellipse cx="15.8983" cy="9.5" rx="15.8983" ry="9.5" transform="matrix(0 -1 -1 0 124 402.795)" fill="#F4B678"/>
<ellipse cx="239" cy="405.499" rx="18" ry="9.5" fill="#F4B678"/>
<ellipse cx="224.846" cy="396.02" rx="15.8983" ry="9.5" transform="rotate(72.4758 224.846 396.02)" fill="#F4B678"/>
<ellipse cx="15.8983" cy="9.5" rx="15.8983" ry="9.5" transform="matrix(-0.301109 0.95359 0.95359 0.301109 248.574 377.999)" fill="#F4B678"/>
<ellipse cx="15.8983" cy="9.5" rx="15.8983" ry="9.5" transform="matrix(0 -1 -1 0 248 401.795)" fill="#F4B678"/>
</g>
<defs>
<filter id="filter0_d_299_7" x="0" y="0" width="356" height="452" filterUnits="userSpaceOnUse" color-interpolation-filters="sRGB">
<feFlood flood-opacity="0" result="BackgroundImageFix"/>
<feColorMatrix in="SourceAlpha" type="matrix" values="0 0 0 0 0 0 0 0 0 0 0 0 0 0 0 0 0 0 127 0" result="hardAlpha"/>
<feOffset dy="16"/>
<feGaussianBlur stdDeviation="8"/>
<feComposite in2="hardAlpha" operator="out"/>
<feColorMatrix type="matrix" values="0 0 0 0 0 0 0 0 0 0 0 0 0 0 0 0 0 0 0.25 0"/>
<feBlend mode="normal" in2="BackgroundImageFix" result="effect1_dropShadow_299_7"/>
<feBlend mode="normal" in="SourceGraphic" in2="effect1_dropShadow_299_7" result="shape"/>
</filter>
</defs>
</svg>
